<svg xmlns="http://www.w3.org/2000/svg" xml:space="preserve" style="fill-rule:evenodd;clip-rule:evenodd;stroke-linecap:round;stroke-linejoin:round" viewBox="0 0 48 49">
  <path d="M0 0h47.998v48.031H0z" style="fill:none"/>
  <path d="M28.052 43.021c-2.025-.488-6.987-.527-9.783-.068" style="fill:none;fill-rule:nonzero;stroke:#1e1e1e;stroke-width:.09px"/>
  <path d="m28.629 42.942 4.43 1.94c.065.028.118.096.118.15v.155c0 .054-.056.119-.125.143l-6.637 2.385a.746.746 0 0 1-.263.033l-11.193-.92c-.076-.007-.139-.056-.139-.11v-.155c0-.054 0-.143.014-.197l.218-2.295c0-.054.069-.113.142-.131l2.123-.525" style="fill:none;fill-rule:nonzero;stroke:#323232;stroke-width:.15px"/>
  <path d="M16.051 44.516c0 .929 3.242 1.682 7.241 1.682 1.851 0 7.254-.256 7.07-1.59" style="fill:none;fill-rule:nonzero;stroke:#323232;stroke-width:.15px"/>
  <path d="m33.178 44.934-6.762 2.429a.747.747 0 0 1-.263.034l-11.331-.933M30.349 44.48c-.487-.568-1.187-1.056-2.052-1.455M18.05 43.048c-.837.373-1.517.831-2.004 1.359" style="fill:none;fill-rule:nonzero;stroke:#323232;stroke-width:.15px"/>
  <path d="M18.05 43.233c.342.492 1.651 1.065 5.898 1.065 1.787 0 4.211-.331 4.294-1" style="fill:none;fill-rule:nonzero;stroke:#1e1e1e;stroke-width:.09px"/>
  <path d="M29.26 2.01a1.391 1.391 0 0 0-.297-.075c-.589-.082-.997-.065-1.701.052-1.014.168-2.415.272-3.963.272-2.27 0-4.142-.237-5.028-.547-.213-.075-.327-.178-.35-.251" style="fill:none;fill-rule:nonzero;stroke:#323232;stroke-width:.15px"/>
  <path d="M28.668 2.129c-.7-.054-.891.006-1.496.115l-.123.023M18.122 1.926c.931.409 2.912.63 5.046.63 1.11 0 2.144-.06 3.017-.164M20.113.724c-.827.111-1.58.296-1.88.442-.139.067-.219.144-.219.235M28.613 1.669c-.179-.314-.282-.573-1.267-.782-1.015-.216-2.475-.351-4.097-.351-.805 0-1.569.033-2.258.093" style="fill:none;fill-rule:nonzero;stroke:#1e1e1e;stroke-width:.06px"/>
  <path d="M28.293 43.052V3.046s-.062-.682.843-.776c.045-.004.19.042.24.04.29-.007.356-.248-.123-.572-.534-.359-.283-.754-1.344-1.023a13.577 13.577 0 0 0-1.624-.283 26.616 26.616 0 0 0-3.114-.175c-3.116 0-5.643.457-5.643 1.005 0 .396.522.437.522 1.019v40.676" style="fill:none;fill-rule:nonzero;stroke:#323232;stroke-width:.15px"/>
  <path d="M18.724 4.247c.896.345 2.533.576 4.404.576M23.128 8.791c-1.871 0-3.508-.23-4.404-.575M23.128 12.76c-1.871 0-3.508-.231-4.404-.575M23.128 16.729c-1.871 0-3.508-.231-4.404-.576M23.128 20.698c-1.871 0-3.508-.231-4.404-.576" style="fill:none;fill-rule:nonzero;stroke:#000;stroke-width:.15px"/>
  <path d="M21.418 5.549c-1.134-.092-2.085-.274-2.694-.508M21.418 6.343c-1.134-.093-2.085-.274-2.694-.509M21.418 7.136c-1.134-.092-2.085-.274-2.694-.508M18.724 7.422c.609.234 1.56.416 2.694.508M21.418 9.518c-1.134-.093-2.085-.274-2.694-.508M21.418 10.311c-1.134-.092-2.085-.273-2.694-.508M21.418 11.105c-1.134-.092-2.085-.274-2.694-.508M21.418 11.899c-1.134-.092-2.085-.274-2.694-.508M21.418 13.486c-1.134-.092-2.085-.274-2.694-.508M21.418 14.28c-1.134-.092-2.085-.274-2.694-.508M21.418 15.074c-1.134-.092-2.085-.274-2.694-.508M21.418 15.868c-1.134-.093-2.085-.274-2.694-.508M21.418 17.455c-1.134-.092-2.085-.274-2.694-.508M21.418 18.249c-1.134-.092-2.085-.274-2.694-.508M21.418 19.043c-1.134-.093-2.085-.274-2.694-.509M21.418 19.836c-1.134-.092-2.085-.274-2.694-.508M18.724 4.644c.362.139.844.26 1.414.354M18.724 5.438c.362.139.844.259 1.414.354M18.724 6.231c.362.14.844.26 1.414.354M20.138 7.379c-.57-.094-1.052-.215-1.414-.354M18.724 7.819c.362.139.844.26 1.414.354M18.724 8.613c.362.139.844.259 1.414.354M18.724 9.406c.362.14.844.26 1.414.354M18.724 10.2c.362.139.844.26 1.414.354M18.724 10.994c.362.139.844.259 1.414.354M18.724 11.788c.362.139.844.259 1.414.354M18.724 12.581c.362.139.844.26 1.414.354M18.724 13.375c.362.139.844.26 1.414.354M18.724 14.169c.362.139.844.26 1.414.354M18.724 14.963c.362.139.844.259 1.414.354M18.724 15.756c.362.139.844.26 1.414.354M18.724 16.55c.362.139.844.26 1.414.354M18.724 17.344c.362.139.844.259 1.414.354M18.724 18.138c.362.139.844.259 1.414.354M18.724 18.931c.362.139.844.26 1.414.354M18.724 19.725c.362.139.844.26 1.414.354M21.418 21.376c-1.134-.092-2.085-.274-2.694-.508M21.418 22.17c-1.134-.093-2.085-.274-2.694-.508M21.418 22.963c-1.134-.092-2.085-.273-2.694-.508M21.418 23.757c-1.134-.092-2.085-.274-2.694-.508M18.724 20.471c.362.139.844.26 1.414.354M18.724 21.265c.362.139.844.259 1.414.354M18.724 22.058c.362.14.844.26 1.414.354M18.724 22.852c.362.139.844.26 1.414.354M18.724 23.646c.362.139.844.26 1.414.354" style="fill:none;fill-rule:nonzero;stroke:#000;stroke-width:.09px"/>
  <path d="M18.759 24.09c.896.345 2.533.576 4.404.576M23.163 28.635c-1.871 0-3.508-.231-4.404-.576M23.163 32.603c-1.871 0-3.508-.23-4.404-.575M23.163 36.572c-1.871 0-3.508-.231-4.404-.576M23.163 40.541c-1.871 0-3.508-.231-4.404-.576" style="fill:none;fill-rule:nonzero;stroke:#000;stroke-width:.15px"/>
  <path d="M21.453 25.392c-1.134-.092-2.085-.274-2.694-.508M21.453 26.186c-1.134-.093-2.085-.274-2.694-.508M21.453 26.98c-1.134-.093-2.085-.274-2.694-.509M18.759 27.265c.609.234 1.56.416 2.694.508M21.453 29.361c-1.134-.092-2.085-.274-2.694-.508M21.453 30.155c-1.134-.093-2.085-.274-2.694-.509M21.453 30.948c-1.134-.092-2.085-.274-2.694-.508M21.453 31.742c-1.134-.092-2.085-.274-2.694-.508M21.453 33.33c-1.134-.093-2.085-.274-2.694-.509M21.453 34.123c-1.134-.092-2.085-.274-2.694-.508M21.453 34.917c-1.134-.092-2.085-.274-2.694-.508M21.453 35.711c-1.134-.092-2.085-.274-2.694-.508M21.453 37.298c-1.134-.092-2.085-.274-2.694-.508M21.453 38.092c-1.134-.092-2.085-.274-2.694-.508M21.453 38.886c-1.134-.093-2.085-.274-2.694-.508M21.453 39.68c-1.134-.093-2.085-.274-2.694-.509M21.453 41.267c-1.134-.092-2.085-.274-2.694-.508M21.453 42.061c-1.134-.092-2.085-.274-2.694-.508M18.759 24.487c.362.139.844.26 1.414.354M18.759 25.281c.362.139.844.259 1.414.354M18.759 26.075c.362.139.844.259 1.414.353M20.173 27.222c-.57-.094-1.052-.215-1.414-.354M18.759 27.662c.362.139.844.26 1.414.354M18.759 28.456c.362.139.844.259 1.414.354M18.759 29.25c.362.139.844.259 1.414.353M18.759 30.043c.362.139.844.26 1.414.354M18.759 30.837c.362.139.844.26 1.414.354M18.759 31.631c.362.139.844.259 1.414.354M18.759 32.425c.362.139.844.259 1.414.353M18.759 33.218c.362.139.844.26 1.414.354M18.759 34.012c.362.139.844.26 1.414.354M18.759 34.806c.362.139.844.259 1.414.354M18.759 35.6c.362.139.844.259 1.414.353M18.759 36.393c.362.139.844.26 1.414.354M18.759 37.187c.362.139.844.26 1.414.354M18.759 37.981c.362.139.844.259 1.414.354M18.759 38.775c.362.139.844.259 1.414.353M18.759 39.568c.362.139.844.26 1.414.354M18.759 40.362c.362.139.844.26 1.414.354M18.759 41.156c.362.139.844.259 1.414.354M18.759 41.95c.362.139.844.259 1.414.353" style="fill:none;fill-rule:nonzero;stroke:#000;stroke-width:.09px"/>
</svg>
